G04*
G04 #@! TF.GenerationSoftware,Altium Limited,Altium Designer,24.5.2 (23)*
G04*
G04 Layer_Color=8388736*
%FSLAX44Y44*%
%MOMM*%
G71*
G04*
G04 #@! TF.SameCoordinates,9F46A39F-E17D-48E4-B509-08EF93B7323A*
G04*
G04*
G04 #@! TF.FilePolarity,Negative*
G04*
G01*
G75*
%ADD51C,0.5032*%
G04:AMPARAMS|DCode=52|XSize=3.9032mm|YSize=3.9032mm|CornerRadius=0mm|HoleSize=0mm|Usage=FLASHONLY|Rotation=90.000|XOffset=0mm|YOffset=0mm|HoleType=Round|Shape=RoundedRectangle|*
%AMROUNDEDRECTD52*
21,1,3.9032,3.9032,0,0,90.0*
21,1,3.9032,3.9032,0,0,90.0*
1,1,0.0000,1.9516,1.9516*
1,1,0.0000,1.9516,-1.9516*
1,1,0.0000,-1.9516,-1.9516*
1,1,0.0000,-1.9516,1.9516*
%
%ADD52ROUNDEDRECTD52*%
%ADD53R,1.5932X1.1132*%
%ADD54R,1.2032X1.1532*%
%ADD55R,0.6032X0.7032*%
%ADD56R,0.5032X0.7032*%
%ADD57R,1.7032X0.8032*%
%ADD58R,0.8032X1.7032*%
%ADD59R,1.6732X1.2732*%
%ADD60R,0.7032X0.6032*%
%ADD61R,0.7032X0.5032*%
%ADD62R,2.0032X3.2032*%
%ADD63R,1.5240X0.7620*%
%ADD64R,1.9532X1.2032*%
%ADD65R,2.6132X0.7632*%
%ADD66R,0.6032X1.1282*%
%ADD67R,1.1532X1.1032*%
%ADD68R,1.8032X0.7032*%
%ADD69R,1.8032X0.9032*%
%ADD70R,1.6032X0.6532*%
%ADD71R,1.2732X1.6732*%
%ADD72R,1.3032X0.8532*%
%ADD73R,0.8232X1.6732*%
%ADD74R,1.4032X0.8032*%
%ADD75R,1.2032X1.9532*%
%ADD76R,3.2032X2.0032*%
%ADD77R,1.3532X1.6532*%
%ADD78R,1.4532X1.1532*%
%ADD79R,1.4532X3.4032*%
%ADD80R,2.6032X2.0032*%
%ADD81R,1.6532X1.3532*%
%ADD82R,1.7332X3.6332*%
%ADD83R,2.5032X0.7032*%
%ADD84R,2.7032X2.2032*%
%ADD85C,1.8532*%
%ADD86R,1.8532X1.8532*%
%ADD87R,1.8532X1.8532*%
%ADD88C,1.6343*%
%ADD89C,3.6532*%
%ADD90C,1.6282*%
%ADD91R,1.6282X1.6282*%
%ADD92C,1.6032*%
%ADD93C,0.6532*%
D51*
X208000Y360000D02*
D03*
Y355000D02*
D03*
Y350000D02*
D03*
X230000Y338000D02*
D03*
X240000D02*
D03*
X257000Y370000D02*
D03*
Y375000D02*
D03*
X250000Y387000D02*
D03*
X245000D02*
D03*
X208000Y365000D02*
D03*
X215000Y387000D02*
D03*
X235000Y338000D02*
D03*
X208000Y370000D02*
D03*
X215000Y338000D02*
D03*
X208000Y345000D02*
D03*
X257000D02*
D03*
X250000Y338000D02*
D03*
X208000Y380000D02*
D03*
Y375000D02*
D03*
X257000Y350000D02*
D03*
Y355000D02*
D03*
Y360000D02*
D03*
Y365000D02*
D03*
X230000Y387000D02*
D03*
X225000D02*
D03*
X257000Y380000D02*
D03*
X220000Y338000D02*
D03*
X245000D02*
D03*
X240000Y387000D02*
D03*
X225000Y338000D02*
D03*
X235000Y387000D02*
D03*
X220000D02*
D03*
D52*
X232500Y362500D02*
D03*
D53*
X130000Y385700D02*
D03*
Y369300D02*
D03*
Y415700D02*
D03*
Y399300D02*
D03*
D54*
X175000Y451000D02*
D03*
Y435000D02*
D03*
X220000Y451000D02*
D03*
Y435000D02*
D03*
D55*
X190000D02*
D03*
X205000D02*
D03*
Y425000D02*
D03*
X190000D02*
D03*
X275000Y305000D02*
D03*
X260000D02*
D03*
Y315000D02*
D03*
X275000D02*
D03*
D56*
X195000Y435000D02*
D03*
X200000D02*
D03*
Y425000D02*
D03*
X195000D02*
D03*
X270000Y305000D02*
D03*
X265000D02*
D03*
Y315000D02*
D03*
X270000D02*
D03*
D57*
X537500Y159500D02*
D03*
Y135500D02*
D03*
X452500Y151500D02*
D03*
Y135500D02*
D03*
X537500Y127500D02*
D03*
Y167500D02*
D03*
Y175500D02*
D03*
Y143500D02*
D03*
X452500Y159500D02*
D03*
Y143500D02*
D03*
X537500Y151500D02*
D03*
X452500Y175500D02*
D03*
Y167500D02*
D03*
X537500Y119500D02*
D03*
X452500Y127500D02*
D03*
Y119500D02*
D03*
D58*
X523000Y190000D02*
D03*
X515000D02*
D03*
X507000D02*
D03*
X499000D02*
D03*
X483000D02*
D03*
X475000D02*
D03*
X467000D02*
D03*
Y105000D02*
D03*
X475000D02*
D03*
X483000D02*
D03*
X491000D02*
D03*
X499000D02*
D03*
X523000D02*
D03*
X515000D02*
D03*
X491000Y190000D02*
D03*
X507000Y105000D02*
D03*
D59*
X366000Y217300D02*
D03*
Y233700D02*
D03*
X590000Y150700D02*
D03*
Y134300D02*
D03*
X565000D02*
D03*
Y150700D02*
D03*
X239500Y301800D02*
D03*
Y318200D02*
D03*
X187500Y363200D02*
D03*
Y346800D02*
D03*
D60*
X350000Y127500D02*
D03*
Y142500D02*
D03*
X360000D02*
D03*
Y127500D02*
D03*
X192500Y312500D02*
D03*
Y327500D02*
D03*
X182500D02*
D03*
Y312500D02*
D03*
X252500Y125000D02*
D03*
Y110000D02*
D03*
X262500D02*
D03*
Y125000D02*
D03*
X300000Y427500D02*
D03*
Y442500D02*
D03*
X310000D02*
D03*
Y427500D02*
D03*
D61*
X350000Y132500D02*
D03*
Y137500D02*
D03*
X360000D02*
D03*
Y132500D02*
D03*
X192500Y317500D02*
D03*
Y322500D02*
D03*
X182500D02*
D03*
Y317500D02*
D03*
X252500Y120000D02*
D03*
Y115000D02*
D03*
X262500D02*
D03*
Y120000D02*
D03*
X300000Y432500D02*
D03*
Y437500D02*
D03*
X310000D02*
D03*
Y432500D02*
D03*
D62*
X323000Y251000D02*
D03*
Y200000D02*
D03*
D63*
X465922Y228102D02*
D03*
X444078Y237500D02*
D03*
X465922Y246898D02*
D03*
D64*
X491000Y252000D02*
D03*
Y223000D02*
D03*
D65*
X587200Y92500D02*
D03*
X622800Y82500D02*
D03*
Y92500D02*
D03*
X587200Y82500D02*
D03*
X622800Y102500D02*
D03*
X587200D02*
D03*
Y72500D02*
D03*
X622800D02*
D03*
Y62500D02*
D03*
X587200D02*
D03*
D66*
X325500Y151250D02*
D03*
X334500D02*
D03*
Y136000D02*
D03*
X325500D02*
D03*
X217000Y314000D02*
D03*
X208000D02*
D03*
Y298750D02*
D03*
X217000D02*
D03*
D67*
X430000Y117500D02*
D03*
Y132500D02*
D03*
X187500Y400000D02*
D03*
Y385000D02*
D03*
D68*
X412500Y122000D02*
D03*
D69*
Y131500D02*
D03*
Y112500D02*
D03*
D70*
X335500Y105750D02*
D03*
X379500Y112250D02*
D03*
X335500Y99250D02*
D03*
Y112250D02*
D03*
Y92750D02*
D03*
X379500Y99250D02*
D03*
Y105750D02*
D03*
Y92750D02*
D03*
D71*
X346800Y70000D02*
D03*
X363200D02*
D03*
D72*
X283500Y98000D02*
D03*
Y117000D02*
D03*
X306500Y107500D02*
D03*
D73*
X232500Y90000D02*
D03*
X252500D02*
D03*
X237500Y407500D02*
D03*
X257500D02*
D03*
D74*
X255000Y53000D02*
D03*
Y72000D02*
D03*
X230000D02*
D03*
Y53000D02*
D03*
Y62500D02*
D03*
D75*
X237000Y117500D02*
D03*
X208000D02*
D03*
X319500Y407500D02*
D03*
X290500D02*
D03*
D76*
X217000Y165000D02*
D03*
X268000D02*
D03*
D77*
X236500Y282500D02*
D03*
X254500D02*
D03*
D78*
X206000Y212000D02*
D03*
Y258000D02*
D03*
Y235000D02*
D03*
D79*
X274000D02*
D03*
D80*
X157500Y373500D02*
D03*
Y411500D02*
D03*
D81*
X270000Y426000D02*
D03*
Y444000D02*
D03*
X247500D02*
D03*
Y426000D02*
D03*
D82*
X150400Y505000D02*
D03*
X189600D02*
D03*
D83*
X81000Y502500D02*
D03*
Y510500D02*
D03*
Y494500D02*
D03*
Y486500D02*
D03*
Y518500D02*
D03*
D84*
Y547000D02*
D03*
Y458000D02*
D03*
X26000Y547000D02*
D03*
Y458000D02*
D03*
D85*
X589100Y25000D02*
D03*
X563700D02*
D03*
X538300D02*
D03*
X512900D02*
D03*
X487500D02*
D03*
X462100D02*
D03*
X436700D02*
D03*
X655000Y336200D02*
D03*
Y310800D02*
D03*
Y183800D02*
D03*
Y209200D02*
D03*
Y234600D02*
D03*
Y260000D02*
D03*
Y285400D02*
D03*
X162200Y25000D02*
D03*
X289200D02*
D03*
X187600D02*
D03*
X213000D02*
D03*
X238400D02*
D03*
X314600D02*
D03*
X263800D02*
D03*
X418800Y552500D02*
D03*
X444200D02*
D03*
X571200D02*
D03*
X469600D02*
D03*
X520400D02*
D03*
X495000D02*
D03*
X545800D02*
D03*
X172200D02*
D03*
X197600D02*
D03*
X324600D02*
D03*
X223000D02*
D03*
X273800D02*
D03*
X248400D02*
D03*
X299200D02*
D03*
D86*
X411300Y25000D02*
D03*
X340000D02*
D03*
X596600Y552500D02*
D03*
X350000D02*
D03*
D87*
X655000Y158400D02*
D03*
D88*
X147400Y127500D02*
D03*
X167400Y152500D02*
D03*
X147400D02*
D03*
X167400Y127500D02*
D03*
D89*
X120300Y200200D02*
D03*
Y79800D02*
D03*
D90*
X325400Y372500D02*
D03*
X300000D02*
D03*
X325400Y347100D02*
D03*
D91*
X300000D02*
D03*
D92*
X56000Y524500D02*
D03*
Y480500D02*
D03*
D93*
X317500Y136000D02*
D03*
X346800Y55700D02*
D03*
X322491Y82509D02*
D03*
X325000Y455000D02*
D03*
X180000Y252500D02*
D03*
X302500Y130000D02*
D03*
X254000Y298500D02*
D03*
X383800Y233700D02*
D03*
X430000Y237500D02*
D03*
X277500Y460000D02*
D03*
X115000Y392500D02*
D03*
X167500Y352500D02*
D03*
X190000Y165000D02*
D03*
X270000Y120000D02*
D03*
X202500Y455000D02*
D03*
X192500D02*
D03*
X161000D02*
D03*
X175000Y310000D02*
D03*
Y340000D02*
D03*
X160000Y282500D02*
D03*
X150000Y270000D02*
D03*
X470000D02*
D03*
X477500Y282500D02*
D03*
X319500Y433000D02*
D03*
X210365Y395000D02*
D03*
X465922Y259078D02*
D03*
X491000Y91500D02*
D03*
X499000Y88500D02*
D03*
X507500Y85500D02*
D03*
X545000Y92500D02*
D03*
X555000Y72500D02*
D03*
X565000Y122500D02*
D03*
X642818Y102500D02*
D03*
X570000Y107500D02*
D03*
X552500Y115000D02*
D03*
X570000Y82500D02*
D03*
X550000Y143500D02*
D03*
X280000Y80000D02*
D03*
X317500Y110000D02*
D03*
X437500Y167500D02*
D03*
X432500Y177500D02*
D03*
X362500Y195000D02*
D03*
X606800Y134300D02*
D03*
X605000Y147500D02*
D03*
X645000Y62500D02*
D03*
X437500Y151500D02*
D03*
X455000Y197500D02*
D03*
X207500Y505000D02*
D03*
X99500Y494500D02*
D03*
X227500Y420000D02*
D03*
X280000Y332500D02*
D03*
X272500Y325000D02*
D03*
X265000Y332500D02*
D03*
X215000Y402500D02*
D03*
X232500Y455000D02*
D03*
X217500Y62500D02*
D03*
X567500Y72500D02*
D03*
X392500Y92500D02*
D03*
X491000Y205000D02*
D03*
X642500Y92500D02*
D03*
X475000Y205000D02*
D03*
X483000D02*
D03*
M02*
