G04*
G04 #@! TF.GenerationSoftware,Altium Limited,Altium Designer,24.5.2 (23)*
G04*
G04 Layer_Color=65535*
%FSLAX44Y44*%
%MOMM*%
G71*
G04*
G04 #@! TF.SameCoordinates,9F46A39F-E17D-48E4-B509-08EF93B7323A*
G04*
G04*
G04 #@! TF.FilePolarity,Positive*
G04*
G01*
G75*
%ADD10C,0.2500*%
%ADD11C,0.4000*%
%ADD12C,0.0670*%
%ADD13C,0.2000*%
%ADD14C,0.1524*%
%ADD15C,0.1000*%
%ADD16C,0.2540*%
D10*
X205000Y387500D02*
G03*
X205000Y387500I-1250J0D01*
G01*
D11*
X451000Y187500D02*
G03*
X451000Y187500I-2000J0D01*
G01*
D12*
X570040Y102960D02*
G03*
X570040Y102280I0J-340D01*
G01*
D02*
G03*
X570040Y102960I0J340D01*
G01*
D13*
X326000Y162620D02*
G03*
X324000Y162620I-1000J0D01*
G01*
D02*
G03*
X326000Y162620I1000J0D01*
G01*
X401836Y132430D02*
G03*
X401836Y132430I-1346J0D01*
G01*
X216500Y287380D02*
G03*
X218500Y287380I1000J0D01*
G01*
D02*
G03*
X216500Y287380I-1000J0D01*
G01*
X124000Y519500D02*
G03*
X124000Y517500I0J-1000D01*
G01*
D02*
G03*
X124000Y519500I0J1000D01*
G01*
X397600Y12300D02*
Y25000D01*
Y12300D02*
X602800D01*
Y37700D01*
X411300D02*
X602800D01*
X124750Y377500D02*
X135250D01*
X172000Y443000D02*
X178000D01*
X217000D02*
X223000D01*
X207500Y429000D02*
Y431000D01*
X187500Y429000D02*
Y431000D01*
X463500Y116000D02*
Y179000D01*
Y116000D02*
X526500D01*
Y179000D01*
X463500D02*
X526500D01*
X354000Y145000D02*
X356000D01*
X354000Y125000D02*
X356000D01*
X186500Y310000D02*
X188500D01*
X186500Y330000D02*
X188500D01*
X257500Y309000D02*
Y311000D01*
X277500Y309000D02*
Y311000D01*
X256500Y127500D02*
X258500D01*
X256500Y107500D02*
X258500D01*
X304000Y445000D02*
X306000D01*
X304000Y425000D02*
X306000D01*
X296500Y185000D02*
Y252000D01*
X349500Y212250D02*
Y252000D01*
X478750Y223000D02*
Y260500D01*
X503250D01*
Y223000D02*
Y260500D01*
X642300Y158400D02*
Y349900D01*
X667700D01*
Y144700D02*
Y349900D01*
X655000Y144700D02*
X667700D01*
X589100Y57500D02*
X620900D01*
X589100Y107500D02*
X620900D01*
X406000Y137000D02*
X419000D01*
X406000Y107000D02*
X419000D01*
X328500Y118000D02*
X342500D01*
X346000Y87500D02*
Y117500D01*
Y87500D02*
X369000D01*
Y117500D01*
X346000D02*
X369000D01*
X353700Y25000D02*
Y37700D01*
X148500D02*
X353700D01*
X148500Y12300D02*
Y37700D01*
Y12300D02*
X340000D01*
X278000Y122750D02*
X289000D01*
X292500Y92900D02*
Y122100D01*
Y92900D02*
X297500D01*
Y122100D01*
X292500D02*
X297500D01*
X242500Y84750D02*
Y95250D01*
X224000Y77500D02*
X236000D01*
X239500Y48000D02*
Y77000D01*
Y48000D02*
X245500D01*
Y77000D01*
X239500D02*
X245500D01*
X208000Y105250D02*
X245500D01*
Y129750D01*
X208000D02*
X245500D01*
X216000Y191500D02*
X255750D01*
X216000Y138500D02*
X283000D01*
X245500Y277250D02*
Y287750D01*
X199750Y266250D02*
X212250D01*
X215750Y202500D02*
Y267500D01*
Y202500D02*
X264250D01*
Y267500D01*
X215750D02*
X264250D01*
X124750Y407500D02*
X135250D01*
X300000Y386750D02*
X338600D01*
Y332850D02*
Y386750D01*
X286800Y332850D02*
X338600D01*
X286800D02*
Y347100D01*
X290500Y419750D02*
X328000D01*
Y395250D02*
Y419750D01*
X290500Y395250D02*
X328000D01*
X247500Y402250D02*
Y412750D01*
X264750Y435000D02*
X275250D01*
X242250D02*
X252750D01*
X170000Y489800D02*
Y520200D01*
X405100Y539800D02*
X596600D01*
X405100D02*
Y565200D01*
X610300D01*
Y552500D02*
Y565200D01*
X158500Y539800D02*
X350000D01*
X158500D02*
Y565200D01*
X363700D01*
Y552500D02*
Y565200D01*
D14*
X462112Y234198D02*
Y240802D01*
X451952Y222260D02*
X457794D01*
X447888D02*
X451952D01*
X447888Y243596D02*
Y252740D01*
X457794D01*
X447888Y222260D02*
Y231404D01*
D15*
X17500Y200200D02*
X100300D01*
X17500Y79800D02*
Y200200D01*
Y79800D02*
X100300D01*
X140300Y200200D02*
X182500D01*
Y79800D02*
Y200200D01*
X140300Y79800D02*
X182500D01*
X100000Y536000D02*
X115000D01*
Y469000D02*
Y536000D01*
X100000Y469000D02*
X115000D01*
X30500Y472500D02*
Y532500D01*
X45000Y469000D02*
X65000D01*
X45000Y536000D02*
X65000D01*
X12998Y344000D02*
X6000D01*
X8333D01*
X12998Y339335D01*
X9499Y342834D01*
X6000Y339335D01*
Y337002D02*
Y334670D01*
Y335836D01*
X10665D01*
Y337002D01*
X6000Y331171D02*
X12998D01*
Y327672D01*
X11832Y326506D01*
X9499D01*
X8333Y327672D01*
Y331171D01*
Y328838D02*
X6000Y326506D01*
Y324173D02*
X10665D01*
X12998Y321840D01*
X10665Y319508D01*
X6000D01*
X9499D01*
Y324173D01*
X533335Y189999D02*
X536668D01*
Y189166D01*
X533335Y185834D01*
Y185001D01*
X536668D01*
X538334Y189999D02*
Y185834D01*
X539167Y185001D01*
X540833D01*
X541666Y185834D01*
Y189999D01*
X545831Y185001D02*
Y189999D01*
X543332Y187500D01*
X546665D01*
X170835Y465499D02*
X174167D01*
Y464666D01*
X170835Y461334D01*
Y460501D01*
X174167D01*
X179165D02*
X175833D01*
X179165Y463833D01*
Y464666D01*
X178332Y465499D01*
X176666D01*
X175833Y464666D01*
X216668Y465499D02*
X220000D01*
Y464666D01*
X216668Y461334D01*
Y460501D01*
X220000D01*
X221666D02*
X223332D01*
X222499D01*
Y465499D01*
X221666Y464666D01*
X408335Y101499D02*
X411667Y96501D01*
Y101499D02*
X408335Y96501D01*
X413333Y101499D02*
X416665D01*
X414999D01*
Y96501D01*
X151669Y429999D02*
X155001Y425001D01*
Y429999D02*
X151669Y425001D01*
X156667Y429999D02*
X159999D01*
X158333D01*
Y425001D01*
X161665D02*
X163331D01*
X162498D01*
Y429999D01*
X161665Y429166D01*
X8335Y434999D02*
X11667Y430001D01*
Y434999D02*
X8335Y430001D01*
X16665D02*
X13333D01*
X16665Y433333D01*
Y434166D01*
X15832Y434999D01*
X14166D01*
X13333Y434166D01*
X19168Y209999D02*
X22500Y205001D01*
Y209999D02*
X19168Y205001D01*
X24166D02*
X25832D01*
X24999D01*
Y209999D01*
X24166Y209166D01*
X372136Y84699D02*
Y80534D01*
X372969Y79701D01*
X374635D01*
X375468Y80534D01*
Y84699D01*
X380466D02*
X377134D01*
Y82200D01*
X378800Y83033D01*
X379633D01*
X380466Y82200D01*
Y80534D01*
X379633Y79701D01*
X377967D01*
X377134Y80534D01*
X382132Y79701D02*
Y83033D01*
X383798Y84699D01*
X385465Y83033D01*
Y79701D01*
Y82200D01*
X382132D01*
X265835Y392499D02*
Y388334D01*
X266668Y387501D01*
X268334D01*
X269167Y388334D01*
Y392499D01*
X270833Y391666D02*
X271666Y392499D01*
X273332D01*
X274165Y391666D01*
Y390833D01*
X273332Y390000D01*
X272499D01*
X273332D01*
X274165Y389167D01*
Y388334D01*
X273332Y387501D01*
X271666D01*
X270833Y388334D01*
X210835Y49999D02*
Y45834D01*
X211668Y45001D01*
X213334D01*
X214167Y45834D01*
Y49999D01*
X219165Y45001D02*
X215833D01*
X219165Y48333D01*
Y49166D01*
X218332Y49999D01*
X216666D01*
X215833Y49166D01*
X189168Y269999D02*
Y265834D01*
X190001Y265001D01*
X191667D01*
X192500Y265834D01*
Y269999D01*
X194166Y265001D02*
X195832D01*
X194999D01*
Y269999D01*
X194166Y269166D01*
X291668Y132499D02*
X295000D01*
X293334D01*
Y127501D01*
X296666D02*
X298332D01*
X297499D01*
Y132499D01*
X296666Y131666D01*
X448337Y212501D02*
Y217499D01*
X450836D01*
X451669Y216666D01*
Y215000D01*
X450836Y214167D01*
X448337D01*
X450003D02*
X451669Y212501D01*
X456668Y217499D02*
X453335D01*
Y212501D01*
X456668D01*
X453335Y215000D02*
X455002D01*
X461666Y216666D02*
X460833Y217499D01*
X459167D01*
X458334Y216666D01*
Y215833D01*
X459167Y215000D01*
X460833D01*
X461666Y214167D01*
Y213334D01*
X460833Y212501D01*
X459167D01*
X458334Y213334D01*
X466665Y217499D02*
X463332D01*
Y212501D01*
X466665D01*
X463332Y215000D02*
X464998D01*
X468331Y217499D02*
X471663D01*
X469997D01*
Y212501D01*
X428335Y102501D02*
Y107499D01*
X430834D01*
X431667Y106666D01*
Y105000D01*
X430834Y104167D01*
X428335D01*
X430001D02*
X431667Y102501D01*
X436665D02*
X433333D01*
X436665Y105833D01*
Y106666D01*
X435832Y107499D01*
X434166D01*
X433333Y106666D01*
X184168Y410001D02*
Y414999D01*
X186667D01*
X187500Y414166D01*
Y412500D01*
X186667Y411667D01*
X184168D01*
X185834D02*
X187500Y410001D01*
X189166D02*
X190832D01*
X189999D01*
Y414999D01*
X189166Y414166D01*
X113337Y15001D02*
Y19999D01*
X115836D01*
X116669Y19166D01*
Y17500D01*
X115836Y16667D01*
X113337D01*
X120835Y19999D02*
X119169D01*
X118336Y19166D01*
Y15834D01*
X119169Y15001D01*
X120835D01*
X121668Y15834D01*
Y19166D01*
X120835Y19999D01*
X123334D02*
Y15001D01*
X125000Y16667D01*
X126666Y15001D01*
Y19999D01*
X131664D02*
X128332D01*
Y15001D01*
X131664D01*
X128332Y17500D02*
X129998D01*
X133331Y15001D02*
Y19999D01*
X135830D01*
X136663Y19166D01*
Y17500D01*
X135830Y16667D01*
X133331D01*
X134997D02*
X136663Y15001D01*
X316336Y275001D02*
Y279999D01*
X318835D01*
X319668Y279166D01*
Y277500D01*
X318835Y276667D01*
X316336D01*
X324666Y279166D02*
X323833Y279999D01*
X322167D01*
X321334Y279166D01*
Y275834D01*
X322167Y275001D01*
X323833D01*
X324666Y275834D01*
X329664Y275001D02*
X326332D01*
X329664Y278333D01*
Y279166D01*
X328831Y279999D01*
X327165D01*
X326332Y279166D01*
X290001Y170831D02*
X294999D01*
Y168332D01*
X294166Y167499D01*
X292500D01*
X291667Y168332D01*
Y170831D01*
X294166Y162501D02*
X294999Y163334D01*
Y165000D01*
X294166Y165833D01*
X290834D01*
X290001Y165000D01*
Y163334D01*
X290834Y162501D01*
X290001Y160835D02*
Y159169D01*
Y160002D01*
X294999D01*
X294166Y160835D01*
X345834Y169999D02*
Y165001D01*
X349166D01*
X181669Y284999D02*
Y280001D01*
X185002D01*
X190000Y284999D02*
X186668D01*
Y280001D01*
X190000D01*
X186668Y282500D02*
X188334D01*
X191666Y284999D02*
Y280001D01*
X194165D01*
X194998Y280834D01*
Y284166D01*
X194165Y284999D01*
X191666D01*
X196665Y280001D02*
X198331D01*
X197498D01*
Y284999D01*
X196665Y284166D01*
X244168Y459999D02*
Y455001D01*
X247500D01*
X249166D02*
X250832D01*
X249999D01*
Y459999D01*
X249166Y459166D01*
X346668Y387499D02*
X345002D01*
X345835D01*
Y383334D01*
X345002Y382501D01*
X344169D01*
X343335Y383334D01*
X348334Y382501D02*
Y387499D01*
X350833D01*
X351666Y386666D01*
Y385000D01*
X350833Y384167D01*
X348334D01*
X356665Y382501D02*
X353332D01*
X356665Y385833D01*
Y386666D01*
X355831Y387499D01*
X354165D01*
X353332Y386666D01*
X380952Y17499D02*
X382618D01*
X381785D01*
Y12501D01*
X380952D01*
X382618D01*
X387617Y17499D02*
X385950D01*
X385117Y16666D01*
Y13334D01*
X385950Y12501D01*
X387617D01*
X388450Y13334D01*
Y16666D01*
X387617Y17499D01*
X390116D02*
Y12501D01*
X393448D01*
X406851Y575499D02*
X408517D01*
X407684D01*
Y570501D01*
X406851D01*
X408517D01*
X414348Y574666D02*
X413515Y575499D01*
X411849D01*
X411016Y574666D01*
Y571334D01*
X411849Y570501D01*
X413515D01*
X414348Y571334D01*
X419347Y574666D02*
X418514Y575499D01*
X416848D01*
X416015Y574666D01*
Y573833D01*
X416848Y573000D01*
X418514D01*
X419347Y572167D01*
Y571334D01*
X418514Y570501D01*
X416848D01*
X416015Y571334D01*
X421013Y570501D02*
Y575499D01*
X423512D01*
X424345Y574666D01*
Y573000D01*
X423512Y572167D01*
X421013D01*
X160587Y575499D02*
X162253D01*
X161420D01*
Y570501D01*
X160587D01*
X162253D01*
X168084Y574666D02*
X167251Y575499D01*
X165585D01*
X164752Y574666D01*
Y571334D01*
X165585Y570501D01*
X167251D01*
X168084Y571334D01*
X173083Y574666D02*
X172250Y575499D01*
X170583D01*
X169750Y574666D01*
Y573833D01*
X170583Y573000D01*
X172250D01*
X173083Y572167D01*
Y571334D01*
X172250Y570501D01*
X170583D01*
X169750Y571334D01*
X174749Y570501D02*
Y575499D01*
X177248D01*
X178081Y574666D01*
Y573000D01*
X177248Y572167D01*
X174749D01*
X179747Y570501D02*
X181413D01*
X180580D01*
Y575499D01*
X179747Y574666D01*
X646252Y117499D02*
X647918D01*
X647085D01*
Y112501D01*
X646252D01*
X647918D01*
X650417Y116666D02*
X651250Y117499D01*
X652916D01*
X653750Y116666D01*
Y113334D01*
X652916Y112501D01*
X651250D01*
X650417Y113334D01*
Y116666D01*
X655416Y117499D02*
Y112501D01*
Y115000D01*
X658748D01*
Y117499D01*
Y112501D01*
X145000Y532499D02*
X141668D01*
Y530000D01*
X143334D01*
X141668D01*
Y527501D01*
X146666D02*
X148332D01*
X147499D01*
Y532499D01*
X146666Y531666D01*
X332835Y419999D02*
Y415001D01*
X335334D01*
X336167Y415834D01*
Y419166D01*
X335334Y419999D01*
X332835D01*
X337833Y419166D02*
X338666Y419999D01*
X340332D01*
X341165Y419166D01*
Y418333D01*
X340332Y417500D01*
X339499D01*
X340332D01*
X341165Y416667D01*
Y415834D01*
X340332Y415001D01*
X338666D01*
X337833Y415834D01*
X486835Y270999D02*
Y266001D01*
X489334D01*
X490167Y266834D01*
Y270166D01*
X489334Y270999D01*
X486835D01*
X495165Y266001D02*
X491833D01*
X495165Y269333D01*
Y270166D01*
X494332Y270999D01*
X492666D01*
X491833Y270166D01*
X199168Y102499D02*
Y97501D01*
X201667D01*
X202500Y98334D01*
Y101666D01*
X201667Y102499D01*
X199168D01*
X204166Y97501D02*
X205832D01*
X204999D01*
Y102499D01*
X204166Y101666D01*
X127917Y359166D02*
X127084Y359999D01*
X125418D01*
X124585Y359166D01*
Y355834D01*
X125418Y355001D01*
X127084D01*
X127917Y355834D01*
X129584Y355001D02*
X131250D01*
X130416D01*
Y359999D01*
X129584Y359166D01*
X133749Y355001D02*
X135415D01*
X134582D01*
Y359999D01*
X133749Y359166D01*
X129167Y429166D02*
X128334Y429999D01*
X126668D01*
X125835Y429166D01*
Y425834D01*
X126668Y425001D01*
X128334D01*
X129167Y425834D01*
X130833D02*
X131666Y425001D01*
X133332D01*
X134165Y425834D01*
Y429166D01*
X133332Y429999D01*
X131666D01*
X130833Y429166D01*
Y428333D01*
X131666Y427500D01*
X134165D01*
X269167Y414166D02*
X268334Y414999D01*
X266668D01*
X265835Y414166D01*
Y410834D01*
X266668Y410001D01*
X268334D01*
X269167Y410834D01*
X270833Y414166D02*
X271666Y414999D01*
X273332D01*
X274165Y414166D01*
Y413333D01*
X273332Y412500D01*
X274165Y411667D01*
Y410834D01*
X273332Y410001D01*
X271666D01*
X270833Y410834D01*
Y411667D01*
X271666Y412500D01*
X270833Y413333D01*
Y414166D01*
X271666Y412500D02*
X273332D01*
X173334Y354167D02*
X172501Y353334D01*
Y351668D01*
X173334Y350835D01*
X176666D01*
X177499Y351668D01*
Y353334D01*
X176666Y354167D01*
X172501Y355833D02*
Y359165D01*
X173334D01*
X176666Y355833D01*
X177499D01*
X564167Y165666D02*
X563334Y166499D01*
X561668D01*
X560835Y165666D01*
Y162334D01*
X561668Y161501D01*
X563334D01*
X564167Y162334D01*
X569165Y166499D02*
X567499Y165666D01*
X565833Y164000D01*
Y162334D01*
X566666Y161501D01*
X568332D01*
X569165Y162334D01*
Y163167D01*
X568332Y164000D01*
X565833D01*
X254167Y324166D02*
X253334Y324999D01*
X251668D01*
X250835Y324166D01*
Y320834D01*
X251668Y320001D01*
X253334D01*
X254167Y320834D01*
X259165Y324999D02*
X255833D01*
Y322500D01*
X257499Y323333D01*
X258332D01*
X259165Y322500D01*
Y320834D01*
X258332Y320001D01*
X256666D01*
X255833Y320834D01*
X589167Y165666D02*
X588334Y166499D01*
X586668D01*
X585835Y165666D01*
Y162334D01*
X586668Y161501D01*
X588334D01*
X589167Y162334D01*
X593332Y161501D02*
Y166499D01*
X590833Y164000D01*
X594165D01*
X220834Y89167D02*
X220001Y88334D01*
Y86668D01*
X220834Y85835D01*
X224166D01*
X224999Y86668D01*
Y88334D01*
X224166Y89167D01*
X220834Y90833D02*
X220001Y91666D01*
Y93332D01*
X220834Y94165D01*
X221667D01*
X222500Y93332D01*
Y92499D01*
Y93332D01*
X223333Y94165D01*
X224166D01*
X224999Y93332D01*
Y91666D01*
X224166Y90833D01*
X365167Y251075D02*
X364334Y251908D01*
X362668D01*
X361835Y251075D01*
Y247743D01*
X362668Y246910D01*
X364334D01*
X365167Y247743D01*
X370165Y246910D02*
X366833D01*
X370165Y250242D01*
Y251075D01*
X369332Y251908D01*
X367666D01*
X366833Y251075D01*
X365000Y56666D02*
X364167Y57499D01*
X362501D01*
X361668Y56666D01*
Y53334D01*
X362501Y52501D01*
X364167D01*
X365000Y53334D01*
X366666Y52501D02*
X368332D01*
X367499D01*
Y57499D01*
X366666Y56666D01*
X265001Y273337D02*
X269999D01*
Y275836D01*
X269166Y276669D01*
X268333D01*
X267500Y275836D01*
Y273337D01*
Y275836D01*
X266667Y276669D01*
X265834D01*
X265001Y275836D01*
Y273337D01*
Y281668D02*
Y278335D01*
X269999D01*
Y281668D01*
X267500Y278335D02*
Y280002D01*
X265001Y286666D02*
Y283334D01*
X269999D01*
Y286666D01*
X267500Y283334D02*
Y285000D01*
X265001Y288332D02*
X269999D01*
Y290831D01*
X269166Y291665D01*
X265834D01*
X265001Y290831D01*
Y288332D01*
X269999Y296663D02*
Y293331D01*
X266667Y296663D01*
X265834D01*
X265001Y295830D01*
Y294164D01*
X265834Y293331D01*
X267501Y456671D02*
X272499D01*
Y459170D01*
X271666Y460003D01*
X270833D01*
X270000Y459170D01*
Y456671D01*
Y459170D01*
X269167Y460003D01*
X268334D01*
X267501Y459170D01*
Y456671D01*
Y465002D02*
Y461669D01*
X272499D01*
Y465002D01*
X270000Y461669D02*
Y463335D01*
X272499Y466668D02*
X269167D01*
X267501Y468334D01*
X269167Y470000D01*
X272499D01*
X270000D01*
Y466668D01*
X267501Y471666D02*
X272499D01*
Y474165D01*
X271666Y474998D01*
X268334D01*
X267501Y474165D01*
Y471666D01*
X272499Y481663D02*
Y483329D01*
Y482496D01*
X267501D01*
X268334Y481663D01*
X645835Y355001D02*
Y358333D01*
X647501Y359999D01*
X649167Y358333D01*
Y355001D01*
Y357500D01*
X645835D01*
X650833Y359999D02*
Y355001D01*
X653332D01*
X654165Y355834D01*
Y359166D01*
X653332Y359999D01*
X650833D01*
X187753Y442751D02*
X184754D01*
X187753Y445750D01*
Y446499D01*
X187003Y447249D01*
X185504D01*
X184754Y446499D01*
X192252Y442751D02*
X189253D01*
X192252Y445750D01*
Y446499D01*
X191502Y447249D01*
X190002D01*
X189253Y446499D01*
X193751Y442751D02*
Y447249D01*
X196000D01*
X196750Y446499D01*
Y445000D01*
X196000Y444250D01*
X193751D01*
X195251D02*
X196750Y442751D01*
X202748D02*
Y447249D01*
X204998D01*
X205747Y446499D01*
Y445000D01*
X204998Y444250D01*
X202748D01*
X204248D02*
X205747Y442751D01*
X207247D02*
Y447249D01*
X210246Y442751D01*
Y447249D01*
X293755Y450001D02*
X295421D01*
X294587D01*
Y454999D01*
X293755Y454166D01*
X297920D02*
X298753Y454999D01*
X300419D01*
X301252Y454166D01*
Y450834D01*
X300419Y450001D01*
X298753D01*
X297920Y450834D01*
Y454166D01*
X302918Y454999D02*
Y450001D01*
Y451667D01*
X306250Y454999D01*
X303751Y452500D01*
X306250Y450001D01*
X312915D02*
Y454999D01*
X315414D01*
X316247Y454166D01*
Y452500D01*
X315414Y451667D01*
X312915D01*
X314581D02*
X316247Y450001D01*
X317913D02*
Y454999D01*
X321245Y450001D01*
Y454999D01*
X272499Y83755D02*
Y85421D01*
Y84588D01*
X267501D01*
X268334Y83755D01*
Y87921D02*
X267501Y88754D01*
Y90420D01*
X268334Y91253D01*
X271666D01*
X272499Y90420D01*
Y88754D01*
X271666Y87921D01*
X268334D01*
X267501Y92919D02*
X272499D01*
X270833D01*
X267501Y96251D01*
X270000Y93752D01*
X272499Y96251D01*
Y102916D02*
X267501D01*
Y105415D01*
X268334Y106248D01*
X270000D01*
X270833Y105415D01*
Y102916D01*
Y104582D02*
X272499Y106248D01*
Y107914D02*
X267501D01*
X272499Y111246D01*
X267501D01*
X272499Y116245D02*
Y112913D01*
X269167Y116245D01*
X268334D01*
X267501Y115412D01*
Y113745D01*
X268334Y112913D01*
X283754Y307501D02*
X285420D01*
X284587D01*
Y312499D01*
X283754Y311666D01*
X287919Y312499D02*
Y307501D01*
Y309167D01*
X291251Y312499D01*
X288752Y310000D01*
X291251Y307501D01*
X297916D02*
Y312499D01*
X300415D01*
X301248Y311666D01*
Y310000D01*
X300415Y309167D01*
X297916D01*
X299582D02*
X301248Y307501D01*
X302914D02*
Y312499D01*
X306246Y307501D01*
Y312499D01*
X168755Y300001D02*
X170421D01*
X169587D01*
Y304999D01*
X168755Y304166D01*
X172920Y304999D02*
Y300001D01*
Y301667D01*
X176252Y304999D01*
X173753Y302500D01*
X176252Y300001D01*
X182917D02*
Y304999D01*
X185416D01*
X186249Y304166D01*
Y302500D01*
X185416Y301667D01*
X182917D01*
X184583D02*
X186249Y300001D01*
X187915D02*
Y304999D01*
X191247Y300001D01*
Y304999D01*
X195412Y300001D02*
Y304999D01*
X192913Y302500D01*
X196245D01*
X369999Y123755D02*
Y125421D01*
Y124588D01*
X365001D01*
X365834Y123755D01*
X365001Y127921D02*
X369999D01*
X368333D01*
X365001Y131253D01*
X367500Y128754D01*
X369999Y131253D01*
Y137917D02*
X365001D01*
Y140416D01*
X365834Y141250D01*
X367500D01*
X368333Y140416D01*
Y137917D01*
Y139583D02*
X369999Y141250D01*
Y142916D02*
X365001D01*
X369999Y146248D01*
X365001D01*
X369999Y151246D02*
Y147914D01*
X366667Y151246D01*
X365834D01*
X365001Y150413D01*
Y148747D01*
X365834Y147914D01*
X369999Y152912D02*
X366667D01*
X365001Y154579D01*
X366667Y156245D01*
X369999D01*
X367500D01*
Y152912D01*
D16*
X141500Y367500D02*
Y417500D01*
X173500Y367500D02*
Y417500D01*
M02*
