G04*
G04 #@! TF.GenerationSoftware,Altium Limited,Altium Designer,24.5.2 (23)*
G04*
G04 Layer_Color=16711935*
%FSLAX44Y44*%
%MOMM*%
G71*
G04*
G04 #@! TF.SameCoordinates,9F46A39F-E17D-48E4-B509-08EF93B7323A*
G04*
G04*
G04 #@! TF.FilePolarity,Negative*
G04*
G01*
G75*
%ADD85C,1.8532*%
%ADD86R,1.8532X1.8532*%
%ADD87R,1.8532X1.8532*%
%ADD88C,1.6343*%
%ADD89C,3.6532*%
%ADD90C,1.6282*%
%ADD91R,1.6282X1.6282*%
%ADD92C,1.6032*%
%ADD93C,0.6532*%
D85*
X589100Y25000D02*
D03*
X563700D02*
D03*
X538300D02*
D03*
X512900D02*
D03*
X487500D02*
D03*
X462100D02*
D03*
X436700D02*
D03*
X655000Y336200D02*
D03*
Y310800D02*
D03*
Y183800D02*
D03*
Y209200D02*
D03*
Y234600D02*
D03*
Y260000D02*
D03*
Y285400D02*
D03*
X162200Y25000D02*
D03*
X289200D02*
D03*
X187600D02*
D03*
X213000D02*
D03*
X238400D02*
D03*
X314600D02*
D03*
X263800D02*
D03*
X418800Y552500D02*
D03*
X444200D02*
D03*
X571200D02*
D03*
X469600D02*
D03*
X520400D02*
D03*
X495000D02*
D03*
X545800D02*
D03*
X172200D02*
D03*
X197600D02*
D03*
X324600D02*
D03*
X223000D02*
D03*
X273800D02*
D03*
X248400D02*
D03*
X299200D02*
D03*
D86*
X411300Y25000D02*
D03*
X340000D02*
D03*
X596600Y552500D02*
D03*
X350000D02*
D03*
D87*
X655000Y158400D02*
D03*
D88*
X147400Y127500D02*
D03*
X167400Y152500D02*
D03*
X147400D02*
D03*
X167400Y127500D02*
D03*
D89*
X120300Y200200D02*
D03*
Y79800D02*
D03*
D90*
X325400Y372500D02*
D03*
X300000D02*
D03*
X325400Y347100D02*
D03*
D91*
X300000D02*
D03*
D92*
X56000Y524500D02*
D03*
Y480500D02*
D03*
D93*
X317500Y136000D02*
D03*
X346800Y55700D02*
D03*
X322491Y82509D02*
D03*
X325000Y455000D02*
D03*
X180000Y252500D02*
D03*
X302500Y130000D02*
D03*
X254000Y298500D02*
D03*
X383800Y233700D02*
D03*
X430000Y237500D02*
D03*
X277500Y460000D02*
D03*
X115000Y392500D02*
D03*
X167500Y352500D02*
D03*
X190000Y165000D02*
D03*
X270000Y120000D02*
D03*
X202500Y455000D02*
D03*
X192500D02*
D03*
X161000D02*
D03*
X175000Y310000D02*
D03*
Y340000D02*
D03*
X160000Y282500D02*
D03*
X150000Y270000D02*
D03*
X470000D02*
D03*
X477500Y282500D02*
D03*
X319500Y433000D02*
D03*
X210365Y395000D02*
D03*
X465922Y259078D02*
D03*
X491000Y91500D02*
D03*
X499000Y88500D02*
D03*
X507500Y85500D02*
D03*
X545000Y92500D02*
D03*
X555000Y72500D02*
D03*
X565000Y122500D02*
D03*
X642818Y102500D02*
D03*
X570000Y107500D02*
D03*
X552500Y115000D02*
D03*
X570000Y82500D02*
D03*
X550000Y143500D02*
D03*
X280000Y80000D02*
D03*
X317500Y110000D02*
D03*
X437500Y167500D02*
D03*
X432500Y177500D02*
D03*
X362500Y195000D02*
D03*
X606800Y134300D02*
D03*
X605000Y147500D02*
D03*
X645000Y62500D02*
D03*
X437500Y151500D02*
D03*
X455000Y197500D02*
D03*
X207500Y505000D02*
D03*
X99500Y494500D02*
D03*
X227500Y420000D02*
D03*
X280000Y332500D02*
D03*
X272500Y325000D02*
D03*
X265000Y332500D02*
D03*
X215000Y402500D02*
D03*
X232500Y455000D02*
D03*
X217500Y62500D02*
D03*
X567500Y72500D02*
D03*
X392500Y92500D02*
D03*
X491000Y205000D02*
D03*
X642500Y92500D02*
D03*
X475000Y205000D02*
D03*
X483000D02*
D03*
M02*
